<svg id="Layer_1" data-name="Layer 1" xmlns="http://www.w3.org/2000/svg" xmlns:xlink="http://www.w3.org/1999/xlink" viewBox="0 0 38.33 38.11"><defs><style>.cls-1{fill:url(#White_Black);}.cls-2{fill:url(#White_Black-2);}</style><linearGradient id="White_Black" x1="13.7" y1="19.15" x2="24.77" y2="19.15" gradientUnits="userSpaceOnUse"><stop offset="0" stop-color="#fff"/><stop offset="1" stop-color="#231f20"/></linearGradient><linearGradient id="White_Black-2" x1="0.67" y1="20.15" x2="39" y2="20.15" xlink:href="#White_Black"/></defs><title>bicon2</title><rect class="cls-1" x="13.7" y="13.56" width="10" height="10" rx="1"/><path class="cls-2" d="M38,23.37a1,1,0,0,0-.9.6H35.27l-1.77-2H27.43V21.1h8.72A1,1,0,0,0,38,20.72a1,1,0,0,0-1.88-.38H27.43v-1H33.5a1,1,0,0,0,.9.6,1,1,0,0,0,0-1.95,1,1,0,0,0-.9.59H27.43v-.76h5.43l2-2.2a.85.85,0,0,0,.23,0,1,1,0,0,0,0-2,1,1,0,0,0-1,1,1,1,0,0,0,.14.49l-1.74,1.89H27.43v-.76H30l3.33-4h1.54a1,1,0,1,0,.85-1.46,1,1,0,0,0-.93.7H33l-3.33,4H27.43v0a2.84,2.84,0,0,0-2.33-2.78V11.06l2.63-2.27V7.39a1,1,0,1,0-.76,0v1l-2.63,2.28v1.95h-.66V8.6l2.14-1.94V4.92A1,1,0,0,0,25.44,3a1,1,0,0,0-.38,1.88v1.4L22.92,8.26v4.41H21.86V6.94l2.06-1.76V3a1,1,0,1,0-.76,0V4.83L21.1,6.59v6.08h-.81V3.94a1,1,0,1,0-.76,0v8.73h-1V6.6a1,1,0,0,0-.38-1.88,1,1,0,0,0-.38,1.88v6.07H17V7.24l-2.2-2a.85.85,0,0,0,0-.23,1,1,0,0,0-1.95,0,1,1,0,0,0,1,1,.93.93,0,0,0,.49-.14l1.89,1.74v5.1h-.76v-2.6l-4-3.33V5.2a1,1,0,1,0-.76.09v1.8l4,3.33v2.29a2.83,2.83,0,0,0-2.32,2.78v0H10l-3.33-4H4.87a1,1,0,1,0-.09.76H6.32l3.33,4H12.4v.76H7.15L5.41,15.16a.93.93,0,0,0,.14-.49,1,1,0,1,0-1.95,0,1,1,0,0,0,1,1,.85.85,0,0,0,.23,0l2,2.2H12.4v.76H6.18a1,1,0,1,0,0,.76H12.4v1H3.52a1,1,0,0,0-1.87.38,1,1,0,0,0,1.87.38H12.4v.82H6.17L4.41,24H2.55a1,1,0,0,0-1.88.38,1,1,0,0,0,1.88.38H4.76l1.76-2.06H12.4v1.06H7.84L5.9,25.87H4.5a1,1,0,1,0,0,.76H6.24l1.94-2.14H12.4V25a.81.81,0,0,0,0,.16H10.3L8,27.78H7a1,1,0,1,0,0,.76h1.4l2.27-2.63h1.91a2.85,2.85,0,0,0,1.87,1.79v1.54l-2.63,2.27v1.4a1,1,0,1,0,.76,0v-1l2.63-2.28V27.82h.66V31.7L13.7,33.64v1.74a1,1,0,0,0,.38,1.88,1,1,0,0,0,.38-1.88V34L16.6,32V27.82h1.06v5.54L15.6,35.12v2.21a1,1,0,1,0,.76,0V35.47l2.06-1.76V27.82h.81v8.54a1,1,0,0,0-.6.9,1,1,0,0,0,1.95,0,1,1,0,0,0-.59-.9V27.82h1V33.7a1,1,0,0,0,.38,1.88,1,1,0,0,0,.38-1.88V27.82h.76v5.24l2.2,2a.85.85,0,0,0,0,.23,1,1,0,1,0,1-1,.87.87,0,0,0-.48.14l-1.9-1.74V27.82H24v2.41l4,3.33V35.1a1,1,0,1,0,.76-.09v-1.8l-4-3.33V27.81a2.82,2.82,0,0,0,2.47-1.9H29l2.27,2.63h1.41a1,1,0,0,0,1.87-.38,1,1,0,0,0-1.87-.38H31.65l-2.27-2.63h-2s0-.1,0-.16v-.5H31.5l1.94,2.14h1.74a1,1,0,0,0,.89.6,1,1,0,1,0,0-1.95,1,1,0,0,0-.89.59h-1.4l-2-2.14h-4.4V22.67h5.72l1.77,2.06h2.21a1,1,0,0,0,.9.59,1,1,0,0,0,0-1.95ZM26.21,25a1.62,1.62,0,0,1-1.61,1.62H15.22A1.62,1.62,0,0,1,13.61,25v-9.5a1.61,1.61,0,0,1,1.61-1.61H24.6a1.61,1.61,0,0,1,1.61,1.61Z" transform="translate(-0.67 -1.09)"/></svg>
